<?xml version="1.0" encoding="UTF-8" standalone="no"?>
<svg
   xmlns:ns28="http://www.iki.fi/pav/software/textext/"
   xmlns:dc="http://purl.org/dc/elements/1.1/"
   xmlns:cc="http://creativecommons.org/ns#"
   xmlns:rdf="http://www.w3.org/1999/02/22-rdf-syntax-ns#"
   xmlns:svg="http://www.w3.org/2000/svg"
   xmlns="http://www.w3.org/2000/svg"
   xmlns:sodipodi="http://sodipodi.sourceforge.net/DTD/sodipodi-0.dtd"
   xmlns:inkscape="http://www.inkscape.org/namespaces/inkscape"
   width="96.060692mm"
   height="37.950359mm"
   viewBox="0 0 96.060692 37.950359"
   version="1.1"
   id="svg2174"
   inkscape:version="1.0.2-2 (e86c870879, 2021-01-15)"
   sodipodi:docname="ec3.svg">
  <defs
     id="defs2168">
    <g
       id="id-364838c5-e74e-4d77-96f8-45a5ab0b0d68">
      <symbol
         overflow="visible"
         id="id-94a9a191-fd5d-4d37-a1be-92c6c235f7b0">
        <path
           style="stroke:none;stroke-width:0"
           d=""
           id="id-7bce544d-4ed5-4429-b3a0-e65b43314cd2" />
      </symbol>
      <symbol
         overflow="visible"
         id="id-07649f92-f08a-4b68-92ed-eac5a22c105c">
        <path
           style="stroke:none;stroke-width:0"
           d="m 4.140625,-3.34375 c 0.25,-0.640625 0.765625,-0.640625 0.921875,-0.640625 v -0.3125 c -0.234375,0.015625 -0.515625,0.03125 -0.75,0.03125 -0.171875,0 -0.640625,-0.015625 -0.859375,-0.03125 v 0.3125 c 0.3125,0 0.46875,0.171875 0.46875,0.421875 0,0.109375 -0.015625,0.125 -0.0625,0.25 L 2.84375,-0.875 1.75,-3.546875 C 1.703125,-3.65625 1.6875,-3.6875 1.6875,-3.734375 c 0,-0.25 0.359375,-0.25 0.5625,-0.25 v -0.3125 c -0.265625,0.015625 -0.921875,0.03125 -1.09375,0.03125 -0.265625,0 -0.671875,-0.015625 -0.96875,-0.03125 v 0.3125 c 0.484375,0 0.671875,0 0.8125,0.34375 L 2.5,0 C 2.4375,0.125 2.296875,0.453125 2.25,0.59375 2.03125,1.140625 1.75,1.828125 1.109375,1.828125 c -0.046875,0 -0.28125,0 -0.46875,-0.1875 0.3125,-0.03125 0.390625,-0.25 0.390625,-0.421875 0,-0.25 -0.1875,-0.40625 -0.421875,-0.40625 -0.203125,0 -0.421875,0.125 -0.421875,0.421875 0,0.453125 0.421875,0.8125 0.921875,0.8125 0.625,0 1.03125,-0.578125 1.265625,-1.140625 z m 0,0"
           id="id-11b4b44f-32b4-451d-bee0-400ad92513fc" />
      </symbol>
    </g>
  </defs>
  <sodipodi:namedview
     id="base"
     pagecolor="#ffffff"
     bordercolor="#666666"
     borderopacity="1.0"
     inkscape:pageopacity="0.0"
     inkscape:pageshadow="2"
     inkscape:zoom="0.33602431"
     inkscape:cx="492.25276"
     inkscape:cy="209.12873"
     inkscape:document-units="mm"
     inkscape:current-layer="layer1"
     inkscape:document-rotation="0"
     showgrid="false"
     inkscape:window-width="1366"
     inkscape:window-height="705"
     inkscape:window-x="-8"
     inkscape:window-y="-8"
     inkscape:window-maximized="1" />
  <metadata
     id="metadata2171">
    <rdf:RDF>
      <cc:Work
         rdf:about="">
        <dc:format>image/svg+xml</dc:format>
        <dc:type
           rdf:resource="http://purl.org/dc/dcmitype/StillImage" />
        <dc:title></dc:title>
      </cc:Work>
    </rdf:RDF>
  </metadata>
  <g
     inkscape:label="Layer 1"
     inkscape:groupmode="layer"
     id="layer1"
     transform="translate(24.408543,-92.83469)">
    <g
       id="g2016"
       transform="translate(-70.795609,14.080425)">
      <g
         id="g1810">
        <g
           style="fill:#000000;fill-opacity:1"
           id="id-3ef49c88-89cc-4212-ac9b-a639a238b165"
           transform="matrix(0.705556,0,0,0.705556,-58.691918,-9.5364556)">
          <g
             transform="translate(148.712,154.518)"
             id="g475">
            <path
               style="stroke:none;stroke-width:0"
               d="M 3.453125,-2.453125 4.609375,-3.75 C 4.75,-3.890625 4.8125,-3.953125 5.625,-3.953125 v -0.46875 c -0.34375,0.015625 -0.859375,0.03125 -0.90625,0.03125 -0.25,0 -0.75,-0.03125 -1.03125,-0.03125 v 0.46875 c 0.140625,0 0.265625,0.015625 0.375,0.078125 -0.03125,0.0625 -0.03125,0.09375 -0.078125,0.125 L 3.15625,-2.8125 2.171875,-3.953125 h 0.40625 v -0.46875 c -0.265625,0 -0.890625,0.03125 -1.21875,0.03125 -0.3125,0 -0.765625,-0.03125 -1.09375,-0.03125 v 0.46875 h 0.71875 L 2.53125,-2.125 1.21875,-0.65625 c -0.15625,0.1875 -0.515625,0.1875 -1,0.1875 V 0 c 0.34375,-0.015625 0.875,-0.03125 0.921875,-0.03125 0.25,0 0.828125,0.015625 1.015625,0.03125 v -0.46875 c -0.171875,0 -0.359375,-0.046875 -0.359375,-0.109375 0,-0.015625 0,-0.015625 0.0625,-0.09375 l 0.96875,-1.09375 1.09375,1.296875 H 3.53125 V 0 c 0.265625,-0.015625 0.875,-0.03125 1.203125,-0.03125 0.3125,0 0.765625,0.015625 1.09375,0.03125 V -0.46875 H 5.125 Z m 0,0"
               id="id-cee41ff1-3bef-40e5-8422-2e7a0e5e1e19" />
          </g>
        </g>
        <g
           style="fill:#000000;fill-opacity:1"
           id="id-653811dd-bbba-4dde-84bc-960808382e89"
           transform="matrix(0.705556,0,0,0.705556,-58.691918,-9.5364556)">
          <g
             transform="translate(157.526,154.518)"
             id="g479">
            <path
               style="stroke:none;stroke-width:0"
               d="m 6.84375,-3.265625 c 0.15625,0 0.34375,0 0.34375,-0.1875 C 7.1875,-3.65625 7,-3.65625 6.859375,-3.65625 h -5.96875 c -0.140625,0 -0.328125,0 -0.328125,0.203125 0,0.1875 0.1875,0.1875 0.328125,0.1875 z m 0.015625,1.9375 c 0.140625,0 0.328125,0 0.328125,-0.203125 0,-0.1875 -0.1875,-0.1875 -0.34375,-0.1875 H 0.890625 c -0.140625,0 -0.328125,0 -0.328125,0.1875 0,0.203125 0.1875,0.203125 0.328125,0.203125 z m 0,0"
               id="id-62b69b60-ad7d-4f4b-9f5d-155069bc2ea3" />
          </g>
        </g>
        <g
           style="fill:#000000;fill-opacity:1"
           id="id-5c73cf77-2a9c-4482-afc9-0290a0f71768"
           transform="matrix(0.705556,0,0,0.705556,-58.691918,-9.5364556)">
          <g
             transform="translate(168.042,125.527)"
             id="g483">
            <path
               style="stroke:none;stroke-width:0"
               d="m 3.25,17.546875 h 0.6875 v -17.25 h 2.625 v -0.6875 H 3.25 Z m 0,0"
               id="id-3746ff40-be9c-4797-aad0-0eb64b16840c" />
          </g>
        </g>
        <g
           style="fill:#000000;fill-opacity:1"
           id="id-62bc235a-bece-437d-b1db-fbcea31d9fda"
           transform="matrix(0.705556,0,0,0.705556,-58.691918,-9.5364556)">
          <g
             transform="translate(168.042,143.061)"
             id="g487">
            <path
               style="stroke:none;stroke-width:0"
               d="m 3.25,5.984375 h 0.6875 v -6 H 3.25 Z m 0,0"
               id="id-07657e9a-b314-46f5-9099-6951b7228f1f" />
          </g>
        </g>
        <g
           style="fill:#000000;fill-opacity:1"
           id="id-d7f40c94-17ea-4ed4-ba16-c9b11e91c702"
           transform="matrix(0.705556,0,0,0.705556,-58.691918,-9.5364556)">
          <g
             transform="translate(168.042,149.039)"
             id="g491">
            <path
               style="stroke:none;stroke-width:0"
               d="m 3.25,5.984375 h 0.6875 v -6 H 3.25 Z m 0,0"
               id="id-e45f5a3c-5ebe-4d72-9b4c-66f226914129" />
          </g>
        </g>
        <g
           style="fill:#000000;fill-opacity:1"
           id="id-080563f7-d166-4a45-be89-3791a7b0563f"
           transform="matrix(0.705556,0,0,0.705556,-58.691918,-9.5364556)">
          <g
             transform="translate(168.042,155.017)"
             id="g495">
            <path
               style="stroke:none;stroke-width:0"
               d="m 3.25,5.984375 h 0.6875 v -6 H 3.25 Z m 0,0"
               id="id-f6b63cde-645f-4bdb-a2eb-06e64ae04edb" />
          </g>
        </g>
        <g
           style="fill:#000000;fill-opacity:1"
           id="id-6a9ab044-5602-4d68-964f-963098758151"
           transform="matrix(0.705556,0,0,0.705556,-58.691918,-9.5364556)">
          <g
             transform="translate(168.042,161.393)"
             id="g499">
            <path
               style="stroke:none;stroke-width:0"
               d="m 3.25,17.53125 h 3.3125 v -0.6875 h -2.625 v -17.25 H 3.25 Z m 0,0"
               id="id-54101e35-a51d-4b5e-a21a-e0f74a496447" />
          </g>
        </g>
        <g
           style="fill:#000000;fill-opacity:1"
           id="id-f24a4e40-0b1b-48cb-8026-754a5cc48f0f"
           transform="matrix(0.705556,0,0,0.705556,-58.691918,-9.5364556)">
          <g
             transform="translate(180.142,133.171)"
             id="g503">
            <path
               style="stroke:none;stroke-width:0"
               d="M 3.328125,-3.015625 C 3.390625,-3.265625 3.625,-4.1875 4.3125,-4.1875 c 0.046875,0 0.296875,0 0.5,0.125 C 4.53125,-4 4.34375,-3.765625 4.34375,-3.515625 c 0,0.15625 0.109375,0.34375 0.375,0.34375 0.21875,0 0.53125,-0.171875 0.53125,-0.578125 0,-0.515625 -0.578125,-0.65625 -0.921875,-0.65625 -0.578125,0 -0.921875,0.53125 -1.046875,0.75 -0.25,-0.65625 -0.78125,-0.75 -1.078125,-0.75 -1.03125,0 -1.609375,1.28125 -1.609375,1.53125 0,0.109375 0.109375,0.109375 0.125,0.109375 0.078125,0 0.109375,-0.03125 0.125,-0.109375 0.34375,-1.0625 1,-1.3125 1.34375,-1.3125 0.1875,0 0.53125,0.09375 0.53125,0.671875 0,0.3125 -0.171875,0.96875 -0.53125,2.375 -0.15625,0.609375 -0.515625,1.03125 -0.953125,1.03125 -0.0625,0 -0.28125,0 -0.5,-0.125 0.25,-0.0625 0.46875,-0.265625 0.46875,-0.546875 0,-0.265625 -0.21875,-0.34375 -0.359375,-0.34375 -0.3125,0 -0.546875,0.25 -0.546875,0.578125 0,0.453125 0.484375,0.65625 0.921875,0.65625 0.671875,0 1.03125,-0.703125 1.046875,-0.75 0.125,0.359375 0.484375,0.75 1.078125,0.75 1.03125,0 1.59375,-1.28125 1.59375,-1.53125 0,-0.109375 -0.078125,-0.109375 -0.109375,-0.109375 -0.09375,0 -0.109375,0.046875 -0.140625,0.109375 -0.328125,1.078125 -1,1.3125 -1.3125,1.3125 -0.390625,0 -0.546875,-0.3125 -0.546875,-0.65625 0,-0.21875 0.046875,-0.4375 0.15625,-0.875 z m 0,0"
               id="id-f66438a4-469f-45aa-92df-3511717b684b" />
          </g>
        </g>
        <g
           style="fill:#000000;fill-opacity:1"
           id="id-b9e8fb20-e14c-4781-a69f-ef9e0bf48a16"
           transform="matrix(0.705556,0,0,0.705556,-58.691918,-9.5364556)">
          <g
             transform="translate(185.836,134.665)"
             id="g507">
            <path
               style="stroke:none;stroke-width:0"
               d="m 2.328125,-4.4375 c 0,-0.1875 0,-0.1875 -0.203125,-0.1875 -0.453125,0.4375 -1.078125,0.4375 -1.359375,0.4375 v 0.25 c 0.15625,0 0.625,0 1,-0.1875 v 3.546875 c 0,0.234375 0,0.328125 -0.6875,0.328125 H 0.8125 V 0 c 0.125,0 0.984375,-0.03125 1.234375,-0.03125 0.21875,0 1.09375,0.03125 1.25,0.03125 V -0.25 H 3.03125 c -0.703125,0 -0.703125,-0.09375 -0.703125,-0.328125 z m 0,0"
               id="id-528c42a1-6741-4b2b-ae88-645d83766d3c" />
          </g>
        </g>
        <g
           style="fill:#000000;fill-opacity:1"
           id="id-e0f6ef82-5e1f-43ed-99e5-94537812857c"
           transform="matrix(0.705556,0,0,0.705556,-58.691918,-9.5364556)">
          <g
             transform="translate(180.142,145.126)"
             id="g511">
            <path
               style="stroke:none;stroke-width:0"
               d="M 3.328125,-3.015625 C 3.390625,-3.265625 3.625,-4.1875 4.3125,-4.1875 c 0.046875,0 0.296875,0 0.5,0.125 C 4.53125,-4 4.34375,-3.765625 4.34375,-3.515625 c 0,0.15625 0.109375,0.34375 0.375,0.34375 0.21875,0 0.53125,-0.171875 0.53125,-0.578125 0,-0.515625 -0.578125,-0.65625 -0.921875,-0.65625 -0.578125,0 -0.921875,0.53125 -1.046875,0.75 -0.25,-0.65625 -0.78125,-0.75 -1.078125,-0.75 -1.03125,0 -1.609375,1.28125 -1.609375,1.53125 0,0.109375 0.109375,0.109375 0.125,0.109375 0.078125,0 0.109375,-0.03125 0.125,-0.109375 0.34375,-1.0625 1,-1.3125 1.34375,-1.3125 0.1875,0 0.53125,0.09375 0.53125,0.671875 0,0.3125 -0.171875,0.96875 -0.53125,2.375 -0.15625,0.609375 -0.515625,1.03125 -0.953125,1.03125 -0.0625,0 -0.28125,0 -0.5,-0.125 0.25,-0.0625 0.46875,-0.265625 0.46875,-0.546875 0,-0.265625 -0.21875,-0.34375 -0.359375,-0.34375 -0.3125,0 -0.546875,0.25 -0.546875,0.578125 0,0.453125 0.484375,0.65625 0.921875,0.65625 0.671875,0 1.03125,-0.703125 1.046875,-0.75 0.125,0.359375 0.484375,0.75 1.078125,0.75 1.03125,0 1.59375,-1.28125 1.59375,-1.53125 0,-0.109375 -0.078125,-0.109375 -0.109375,-0.109375 -0.09375,0 -0.109375,0.046875 -0.140625,0.109375 -0.328125,1.078125 -1,1.3125 -1.3125,1.3125 -0.390625,0 -0.546875,-0.3125 -0.546875,-0.65625 0,-0.21875 0.046875,-0.4375 0.15625,-0.875 z m 0,0"
               id="id-64e58e57-945c-4ca6-ab69-698fe9ea78df" />
          </g>
        </g>
        <g
           style="fill:#000000;fill-opacity:1"
           id="id-cfd82cc1-800b-418d-a143-4be039926994"
           transform="matrix(0.705556,0,0,0.705556,-58.691918,-9.5364556)">
          <g
             transform="translate(185.836,146.62)"
             id="g515">
            <path
               style="stroke:none;stroke-width:0"
               d="M 3.515625,-1.265625 H 3.28125 c -0.015625,0.15625 -0.09375,0.5625 -0.1875,0.625 C 3.046875,-0.59375 2.515625,-0.59375 2.40625,-0.59375 H 1.125 c 0.734375,-0.640625 0.984375,-0.84375 1.390625,-1.171875 0.515625,-0.40625 1,-0.84375 1,-1.5 0,-0.84375 -0.734375,-1.359375 -1.625,-1.359375 -0.859375,0 -1.453125,0.609375 -1.453125,1.25 0,0.34375 0.296875,0.390625 0.375,0.390625 0.15625,0 0.359375,-0.125 0.359375,-0.375 0,-0.125 -0.046875,-0.375 -0.40625,-0.375 C 0.984375,-4.21875 1.453125,-4.375 1.78125,-4.375 c 0.703125,0 1.0625,0.546875 1.0625,1.109375 0,0.609375 -0.4375,1.078125 -0.65625,1.328125 L 0.515625,-0.265625 C 0.4375,-0.203125 0.4375,-0.1875 0.4375,0 h 2.875 z m 0,0"
               id="id-7a760fae-74a1-47ad-a178-e66acfcc18f2" />
          </g>
        </g>
        <g
           style="fill:#000000;fill-opacity:1"
           id="id-26286a53-d9de-4299-97fe-0e0c01774e6c"
           transform="matrix(0.705556,0,0,0.705556,-58.691918,-9.5364556)">
          <g
             transform="translate(183.84,155.742)"
             id="g519">
            <path
               style="stroke:none;stroke-width:0"
               d="m 1.90625,-0.53125 c 0,-0.28125 -0.234375,-0.53125 -0.515625,-0.53125 -0.296875,0 -0.53125,0.25 -0.53125,0.53125 C 0.859375,-0.234375 1.09375,0 1.390625,0 1.671875,0 1.90625,-0.234375 1.90625,-0.53125 Z m 0,0"
               id="id-d4853c4e-de15-4029-b584-87b8be9f1a4b" />
          </g>
        </g>
        <g
           style="fill:#000000;fill-opacity:1"
           id="id-7b393395-da42-43e1-998c-1bddee16e7e8"
           transform="matrix(0.705556,0,0,0.705556,-58.691918,-9.5364556)">
          <g
             transform="translate(183.84,159.727)"
             id="g523">
            <path
               style="stroke:none;stroke-width:0"
               d="m 1.90625,-0.53125 c 0,-0.28125 -0.234375,-0.53125 -0.515625,-0.53125 -0.296875,0 -0.53125,0.25 -0.53125,0.53125 C 0.859375,-0.234375 1.09375,0 1.390625,0 1.671875,0 1.90625,-0.234375 1.90625,-0.53125 Z m 0,0"
               id="id-422d59a3-cdcb-4662-96f8-46c6747a5ea4" />
          </g>
        </g>
        <g
           style="fill:#000000;fill-opacity:1"
           id="id-16ff205b-f50b-4eeb-be6b-3dd2f0e27187"
           transform="matrix(0.705556,0,0,0.705556,-58.691918,-9.5364556)">
          <g
             transform="translate(183.84,163.712)"
             id="g527">
            <path
               style="stroke:none;stroke-width:0"
               d="m 1.90625,-0.53125 c 0,-0.28125 -0.234375,-0.53125 -0.515625,-0.53125 -0.296875,0 -0.53125,0.25 -0.53125,0.53125 C 0.859375,-0.234375 1.09375,0 1.390625,0 1.671875,0 1.90625,-0.234375 1.90625,-0.53125 Z m 0,0"
               id="id-a6d91935-09fc-46a2-91a7-ac527008da41" />
          </g>
        </g>
        <g
           style="fill:#000000;fill-opacity:1"
           id="id-e5417edd-301f-42bc-9a5f-c83f9123f484"
           transform="matrix(0.705556,0,0,0.705556,-58.691918,-9.5364556)">
          <g
             transform="translate(179.665,175.667)"
             id="g531">
            <path
               style="stroke:none;stroke-width:0"
               d="M 3.328125,-3.015625 C 3.390625,-3.265625 3.625,-4.1875 4.3125,-4.1875 c 0.046875,0 0.296875,0 0.5,0.125 C 4.53125,-4 4.34375,-3.765625 4.34375,-3.515625 c 0,0.15625 0.109375,0.34375 0.375,0.34375 0.21875,0 0.53125,-0.171875 0.53125,-0.578125 0,-0.515625 -0.578125,-0.65625 -0.921875,-0.65625 -0.578125,0 -0.921875,0.53125 -1.046875,0.75 -0.25,-0.65625 -0.78125,-0.75 -1.078125,-0.75 -1.03125,0 -1.609375,1.28125 -1.609375,1.53125 0,0.109375 0.109375,0.109375 0.125,0.109375 0.078125,0 0.109375,-0.03125 0.125,-0.109375 0.34375,-1.0625 1,-1.3125 1.34375,-1.3125 0.1875,0 0.53125,0.09375 0.53125,0.671875 0,0.3125 -0.171875,0.96875 -0.53125,2.375 -0.15625,0.609375 -0.515625,1.03125 -0.953125,1.03125 -0.0625,0 -0.28125,0 -0.5,-0.125 0.25,-0.0625 0.46875,-0.265625 0.46875,-0.546875 0,-0.265625 -0.21875,-0.34375 -0.359375,-0.34375 -0.3125,0 -0.546875,0.25 -0.546875,0.578125 0,0.453125 0.484375,0.65625 0.921875,0.65625 0.671875,0 1.03125,-0.703125 1.046875,-0.75 0.125,0.359375 0.484375,0.75 1.078125,0.75 1.03125,0 1.59375,-1.28125 1.59375,-1.53125 0,-0.109375 -0.078125,-0.109375 -0.109375,-0.109375 -0.09375,0 -0.109375,0.046875 -0.140625,0.109375 -0.328125,1.078125 -1,1.3125 -1.3125,1.3125 -0.390625,0 -0.546875,-0.3125 -0.546875,-0.65625 0,-0.21875 0.046875,-0.4375 0.15625,-0.875 z m 0,0"
               id="id-7495b514-2dae-41b4-b606-a021bbfbb591" />
          </g>
        </g>
        <g
           style="fill:#000000;fill-opacity:1"
           id="id-2de4dfe9-71a0-46a2-84cb-23b7bae9b6af"
           transform="matrix(0.705556,0,0,0.705556,-58.691918,-9.5364556)">
          <g
             transform="translate(185.359,177.161)"
             id="g535">
            <path
               style="stroke:none;stroke-width:0"
               d="m 0.84375,-0.4375 c -0.015625,0.09375 -0.0625,0.265625 -0.0625,0.28125 0,0.15625 0.125,0.21875 0.234375,0.21875 0.125,0 0.234375,-0.078125 0.28125,-0.140625 0.03125,-0.0625 0.078125,-0.296875 0.125,-0.4375 0.03125,-0.125 0.109375,-0.453125 0.140625,-0.625 0.046875,-0.15625 0.09375,-0.3125 0.125,-0.46875 0.078125,-0.28125 0.09375,-0.34375 0.296875,-0.625 C 2.171875,-2.515625 2.5,-2.875 3.03125,-2.875 c 0.390625,0 0.40625,0.359375 0.40625,0.484375 0,0.421875 -0.296875,1.1875 -0.40625,1.484375 -0.078125,0.203125 -0.109375,0.265625 -0.109375,0.375 0,0.375 0.296875,0.59375 0.65625,0.59375 0.703125,0 1,-0.953125 1,-1.0625 0,-0.09375 -0.078125,-0.09375 -0.109375,-0.09375 -0.09375,0 -0.09375,0.046875 -0.125,0.125 C 4.1875,-0.40625 3.875,-0.125 3.609375,-0.125 c -0.15625,0 -0.1875,-0.09375 -0.1875,-0.25 0,-0.15625 0.046875,-0.25 0.171875,-0.5625 0.078125,-0.21875 0.359375,-0.953125 0.359375,-1.34375 0,-0.671875 -0.53125,-0.796875 -0.90625,-0.796875 -0.578125,0 -0.96875,0.359375 -1.171875,0.640625 -0.046875,-0.484375 -0.453125,-0.640625 -0.75,-0.640625 -0.296875,0 -0.453125,0.21875 -0.546875,0.375 -0.15625,0.265625 -0.25,0.65625 -0.25,0.703125 0,0.078125 0.09375,0.078125 0.125,0.078125 0.09375,0 0.09375,-0.015625 0.140625,-0.203125 0.109375,-0.40625 0.25,-0.75 0.515625,-0.75 0.1875,0 0.234375,0.15625 0.234375,0.34375 0,0.125 -0.0625,0.390625 -0.125,0.578125 -0.046875,0.1875 -0.109375,0.46875 -0.140625,0.625 z m 0,0"
               id="id-5ea8cb1b-8cbc-45d1-92b1-d78ea8848829" />
          </g>
        </g>
        <g
           style="fill:#000000;fill-opacity:1"
           id="id-3a45d1c7-b644-4e66-969f-9d9e36780e6f"
           transform="matrix(0.705556,0,0,0.705556,-58.691918,-9.5364556)">
          <g
             transform="translate(195.764,125.527)"
             id="g539">
            <path
               style="stroke:none;stroke-width:0"
               d="m 2.703125,17.546875 h 0.6875 v -17.9375 H 0.0625 v 0.6875 h 2.640625 z m 0,0"
               id="id-9492e7e4-ec78-4b18-93a7-875b8873dcdd" />
          </g>
        </g>
        <g
           style="fill:#000000;fill-opacity:1"
           id="id-eae497cd-40cc-4a2a-940f-111bbe6c511a"
           transform="matrix(0.705556,0,0,0.705556,-58.691918,-9.5364556)">
          <g
             transform="translate(195.764,143.061)"
             id="g543">
            <path
               style="stroke:none;stroke-width:0"
               d="m 2.703125,5.984375 h 0.6875 v -6 h -0.6875 z m 0,0"
               id="id-d4345646-1795-4c1e-a13f-051bf9440424" />
          </g>
        </g>
        <g
           style="fill:#000000;fill-opacity:1"
           id="id-c9c433d2-f4e7-4e1d-b026-5278e06b1189"
           transform="matrix(0.705556,0,0,0.705556,-58.691918,-9.5364556)">
          <g
             transform="translate(195.764,149.039)"
             id="g547">
            <path
               style="stroke:none;stroke-width:0"
               d="m 2.703125,5.984375 h 0.6875 v -6 h -0.6875 z m 0,0"
               id="id-800611de-3f59-4e5b-907b-eadc4e028241" />
          </g>
        </g>
        <g
           style="fill:#000000;fill-opacity:1"
           id="id-8d5100e6-aa2a-4a2b-a875-bef0a72797d4"
           transform="matrix(0.705556,0,0,0.705556,-58.691918,-9.5364556)">
          <g
             transform="translate(195.764,155.017)"
             id="g551">
            <path
               style="stroke:none;stroke-width:0"
               d="m 2.703125,5.984375 h 0.6875 v -6 h -0.6875 z m 0,0"
               id="id-3db5fda2-44b1-4734-83af-ce69438c4832" />
          </g>
        </g>
        <g
           style="fill:#000000;fill-opacity:1"
           id="id-748e555a-23e2-444e-be85-6b7c52afce54"
           transform="matrix(0.705556,0,0,0.705556,-58.691918,-9.5364556)">
          <g
             transform="translate(195.764,161.393)"
             id="g555">
            <path
               style="stroke:none;stroke-width:0"
               d="M 2.703125,16.84375 H 0.0625 v 0.6875 h 3.328125 v -17.9375 h -0.6875 z m 0,0"
               id="id-bc6bd09c-2261-41cd-8010-bd26e03d3eb0" />
          </g>
        </g>
      </g>
      <g
         transform="matrix(0.705556,0,0,0.705556,93.606196,95.49142)"
         ns28:version="1.8.2"
         ns28:texconverter="pdflatex"
         ns28:pdfconverter="inkscape"
         ns28:text="$\\quad \\mathrm{y} \\quad$"
         ns28:preamble="C:\Users\Jules Verdejo\AppData\Roaming\inkscape\extensions\textext\default_packages.tex"
         ns28:scale="2.0"
         ns28:alignment="middle center"
         ns28:stroke-to-path="0"
         ns28:jacobian_sqrt="0.705556"
         id="g916">
        <defs
           id="id-0e63d7da-aa80-4f61-a818-9d20d4bbc6ac">
          <g
             id="g2398">
            <symbol
               overflow="visible"
               id="symbol2392">
              <path
                 style="stroke:none;stroke-width:0"
                 d=""
                 id="path2390" />
            </symbol>
            <symbol
               overflow="visible"
               id="symbol2396">
              <path
                 style="stroke:none;stroke-width:0"
                 d="m 4.140625,-3.34375 c 0.25,-0.640625 0.765625,-0.640625 0.921875,-0.640625 v -0.3125 c -0.234375,0.015625 -0.515625,0.03125 -0.75,0.03125 -0.171875,0 -0.640625,-0.015625 -0.859375,-0.03125 v 0.3125 c 0.3125,0 0.46875,0.171875 0.46875,0.421875 0,0.109375 -0.015625,0.125 -0.0625,0.25 L 2.84375,-0.875 1.75,-3.546875 C 1.703125,-3.65625 1.6875,-3.6875 1.6875,-3.734375 c 0,-0.25 0.359375,-0.25 0.5625,-0.25 v -0.3125 c -0.265625,0.015625 -0.921875,0.03125 -1.09375,0.03125 -0.265625,0 -0.671875,-0.015625 -0.96875,-0.03125 v 0.3125 c 0.484375,0 0.671875,0 0.8125,0.34375 L 2.5,0 C 2.4375,0.125 2.296875,0.453125 2.25,0.59375 2.03125,1.140625 1.75,1.828125 1.109375,1.828125 c -0.046875,0 -0.28125,0 -0.46875,-0.1875 0.3125,-0.03125 0.390625,-0.25 0.390625,-0.421875 0,-0.25 -0.1875,-0.40625 -0.421875,-0.40625 -0.203125,0 -0.421875,0.125 -0.421875,0.421875 0,0.453125 0.421875,0.8125 0.921875,0.8125 0.625,0 1.03125,-0.578125 1.265625,-1.140625 z m 0,0"
                 id="path2394" />
            </symbol>
          </g>
        </defs>
        <g
           id="id-2cd4b957-93be-41ee-b846-fb92249aa8ae"
           transform="translate(-158.863,-130.468)">
          <g
             style="fill:#000000;fill-opacity:1"
             id="id-1d12b5ad-771a-4ad1-aad9-88ad0ff49373">
            <g
               transform="translate(158.675,134.765)"
               id="g912">
              <path
                 style="stroke:none;stroke-width:0"
                 d="m 4.140625,-3.34375 c 0.25,-0.640625 0.765625,-0.640625 0.921875,-0.640625 v -0.3125 c -0.234375,0.015625 -0.515625,0.03125 -0.75,0.03125 -0.171875,0 -0.640625,-0.015625 -0.859375,-0.03125 v 0.3125 c 0.3125,0 0.46875,0.171875 0.46875,0.421875 0,0.109375 -0.015625,0.125 -0.0625,0.25 L 2.84375,-0.875 1.75,-3.546875 C 1.703125,-3.65625 1.6875,-3.6875 1.6875,-3.734375 c 0,-0.25 0.359375,-0.25 0.5625,-0.25 v -0.3125 c -0.265625,0.015625 -0.921875,0.03125 -1.09375,0.03125 -0.265625,0 -0.671875,-0.015625 -0.96875,-0.03125 v 0.3125 c 0.484375,0 0.671875,0 0.8125,0.34375 L 2.5,0 C 2.4375,0.125 2.296875,0.453125 2.25,0.59375 2.03125,1.140625 1.75,1.828125 1.109375,1.828125 c -0.046875,0 -0.28125,0 -0.46875,-0.1875 0.3125,-0.03125 0.390625,-0.25 0.390625,-0.421875 0,-0.25 -0.1875,-0.40625 -0.421875,-0.40625 -0.203125,0 -0.421875,0.125 -0.421875,0.421875 0,0.453125 0.421875,0.8125 0.921875,0.8125 0.625,0 1.03125,-0.578125 1.265625,-1.140625 z m 0,0"
                 id="id-0c271ae7-b7f6-49d3-bf84-e847a0bf1f1e" />
            </g>
          </g>
        </g>
      </g>
      <g
         id="g1875">
        <g
           style="fill:#000000;fill-opacity:1"
           id="id-b9dac4a3-1d8c-432c-af72-6c799aa571f0"
           transform="matrix(0.705556,0,0,0.705556,2.3916294,-10.242012)">
          <g
             transform="translate(148.712,154.518)"
             id="g1220">
            <path
               style="stroke:none;stroke-width:0"
               d="m 5.046875,-3.75 c 0.0625,-0.140625 0.09375,-0.203125 0.734375,-0.203125 v -0.46875 C 5.546875,-4.40625 5.25,-4.390625 5,-4.390625 c -0.25,0 -0.703125,-0.03125 -0.90625,-0.03125 v 0.46875 c 0.015625,0 0.46875,0 0.46875,0.109375 0,0.015625 -0.046875,0.109375 -0.0625,0.125 L 3.359375,-1.265625 2.09375,-3.953125 H 2.625 v -0.46875 c -0.328125,0.015625 -1.21875,0.03125 -1.234375,0.03125 -0.28125,0 -0.71875,-0.03125 -1.125,-0.03125 v 0.46875 h 0.625 L 2.765625,0 2.53125,0.484375 C 2.3125,0.953125 2,1.640625 1.28125,1.640625 1.140625,1.640625 1.125,1.625 1.046875,1.59375 1.140625,1.5625 1.359375,1.421875 1.359375,1.0625 1.359375,0.734375 1.125,0.5 0.78125,0.5 0.515625,0.5 0.21875,0.6875 0.21875,1.078125 0.21875,1.578125 0.6875,2 1.28125,2 2.046875,2 2.625,1.375 2.90625,0.8125 Z m 0,0"
               id="id-d59ebc45-4df6-4e37-9c8d-d73581ac348e" />
          </g>
        </g>
        <g
           style="fill:#000000;fill-opacity:1"
           id="id-247bc058-eafa-4ece-af74-b1a0f9db1fc4"
           transform="matrix(0.705556,0,0,0.705556,2.3916294,-9.5364556)">
          <g
             transform="translate(157.686,154.518)"
             id="g1224">
            <path
               style="stroke:none;stroke-width:0"
               d="m 6.84375,-3.265625 c 0.15625,0 0.34375,0 0.34375,-0.1875 C 7.1875,-3.65625 7,-3.65625 6.859375,-3.65625 h -5.96875 c -0.140625,0 -0.328125,0 -0.328125,0.203125 0,0.1875 0.1875,0.1875 0.328125,0.1875 z m 0.015625,1.9375 c 0.140625,0 0.328125,0 0.328125,-0.203125 0,-0.1875 -0.1875,-0.1875 -0.34375,-0.1875 H 0.890625 c -0.140625,0 -0.328125,0 -0.328125,0.1875 0,0.203125 0.1875,0.203125 0.328125,0.203125 z m 0,0"
               id="id-c080f312-5a1a-4360-9895-288a8e0985a7" />
          </g>
        </g>
        <g
           style="fill:#000000;fill-opacity:1"
           id="id-f212a7c9-cecd-4cf4-94cd-c1fd20bc40b4"
           transform="matrix(0.705556,0,0,0.705556,2.3916294,-9.5364556)">
          <g
             transform="translate(168.202,125.527)"
             id="g1228">
            <path
               style="stroke:none;stroke-width:0"
               d="m 3.25,17.546875 h 0.6875 v -17.25 h 2.625 v -0.6875 H 3.25 Z m 0,0"
               id="id-b532ff54-2e30-4a85-9bf1-63e613920876" />
          </g>
        </g>
        <g
           style="fill:#000000;fill-opacity:1"
           id="id-8621e8b3-8239-493e-a27b-b466d0d0a323"
           transform="matrix(0.705556,0,0,0.705556,2.3916294,-9.5364556)">
          <g
             transform="translate(168.202,143.061)"
             id="g1232">
            <path
               style="stroke:none;stroke-width:0"
               d="m 3.25,5.984375 h 0.6875 v -6 H 3.25 Z m 0,0"
               id="id-32c43c63-a5dd-4696-a054-c75c26457472" />
          </g>
        </g>
        <g
           style="fill:#000000;fill-opacity:1"
           id="id-24f77d7a-346f-4f5d-aeda-40f7d6804f95"
           transform="matrix(0.705556,0,0,0.705556,2.3916294,-9.5364556)">
          <g
             transform="translate(168.202,149.039)"
             id="g1236">
            <path
               style="stroke:none;stroke-width:0"
               d="m 3.25,5.984375 h 0.6875 v -6 H 3.25 Z m 0,0"
               id="id-eceb89eb-3451-4a39-a883-d767ee56e42c" />
          </g>
        </g>
        <g
           style="fill:#000000;fill-opacity:1"
           id="id-f91ab843-9865-478f-b82a-2823a9cde86f"
           transform="matrix(0.705556,0,0,0.705556,2.3916294,-9.5364556)">
          <g
             transform="translate(168.202,155.017)"
             id="g1240">
            <path
               style="stroke:none;stroke-width:0"
               d="m 3.25,5.984375 h 0.6875 v -6 H 3.25 Z m 0,0"
               id="id-24686164-7299-4b9b-8e2e-43df95bdf0ec" />
          </g>
        </g>
        <g
           style="fill:#000000;fill-opacity:1"
           id="id-8cbea9f1-f241-4abc-95d3-259ab3d9b807"
           transform="matrix(0.705556,0,0,0.705556,2.3916294,-9.5364556)">
          <g
             transform="translate(168.202,161.393)"
             id="g1244">
            <path
               style="stroke:none;stroke-width:0"
               d="m 3.25,17.53125 h 3.3125 v -0.6875 h -2.625 v -17.25 H 3.25 Z m 0,0"
               id="id-e88b4c0c-daf8-4f5b-8619-ae7c6b53d814" />
          </g>
        </g>
        <g
           style="fill:#000000;fill-opacity:1"
           id="id-a8ef049b-6590-4d6f-8ef8-e19e632cb549"
           transform="matrix(0.705556,0,0,0.705556,2.3916294,-9.5364556)">
          <g
             transform="translate(180.302,133.171)"
             id="g1248">
            <path
               style="stroke:none;stroke-width:0"
               d="m 4.84375,-3.796875 c 0.046875,-0.140625 0.046875,-0.15625 0.046875,-0.234375 0,-0.171875 -0.140625,-0.265625 -0.296875,-0.265625 -0.09375,0 -0.25,0.0625 -0.34375,0.203125 -0.015625,0.0625 -0.109375,0.359375 -0.140625,0.546875 -0.078125,0.25 -0.140625,0.53125 -0.203125,0.796875 l -0.453125,1.796875 c -0.03125,0.140625 -0.46875,0.84375 -1.125,0.84375 -0.5,0 -0.609375,-0.4375 -0.609375,-0.8125 C 1.71875,-1.375 1.890625,-2 2.21875,-2.875 2.375,-3.28125 2.421875,-3.390625 2.421875,-3.59375 c 0,-0.4375 -0.3125,-0.8125 -0.8125,-0.8125 -0.953125,0 -1.3125,1.453125 -1.3125,1.53125 0,0.109375 0.09375,0.109375 0.109375,0.109375 0.109375,0 0.109375,-0.03125 0.15625,-0.1875 0.28125,-0.9375 0.671875,-1.234375 1.015625,-1.234375 0.078125,0 0.25,0 0.25,0.3125 0,0.25 -0.109375,0.515625 -0.171875,0.703125 -0.40625,1.0625 -0.578125,1.625 -0.578125,2.09375 0,0.890625 0.625,1.1875 1.21875,1.1875 0.390625,0 0.71875,-0.171875 1,-0.453125 -0.125,0.515625 -0.25,1.015625 -0.640625,1.546875 -0.265625,0.328125 -0.640625,0.625 -1.09375,0.625 -0.140625,0 -0.59375,-0.03125 -0.765625,-0.421875 0.15625,0 0.296875,0 0.421875,-0.125 C 1.328125,1.203125 1.421875,1.0625 1.421875,0.875 1.421875,0.5625 1.15625,0.53125 1.0625,0.53125 0.828125,0.53125 0.5,0.6875 0.5,1.171875 c 0,0.5 0.4375,0.875 1.0625,0.875 1.015625,0 2.046875,-0.90625 2.328125,-2.03125 z m 0,0"
               id="id-ae59117f-3471-4c85-a503-d52fe9bb4a07" />
          </g>
        </g>
        <g
           style="fill:#000000;fill-opacity:1"
           id="id-225b811c-40e7-4193-bada-5a3fb8af0c70"
           transform="matrix(0.705556,0,0,0.705556,2.3916294,-9.5364556)">
          <g
             transform="translate(185.186,134.665)"
             id="g1252">
            <path
               style="stroke:none;stroke-width:0"
               d="m 2.328125,-4.4375 c 0,-0.1875 0,-0.1875 -0.203125,-0.1875 -0.453125,0.4375 -1.078125,0.4375 -1.359375,0.4375 v 0.25 c 0.15625,0 0.625,0 1,-0.1875 v 3.546875 c 0,0.234375 0,0.328125 -0.6875,0.328125 H 0.8125 V 0 c 0.125,0 0.984375,-0.03125 1.234375,-0.03125 0.21875,0 1.09375,0.03125 1.25,0.03125 V -0.25 H 3.03125 c -0.703125,0 -0.703125,-0.09375 -0.703125,-0.328125 z m 0,0"
               id="id-4c2798f8-0260-4cfb-8f25-0bfc287f6e7f" />
          </g>
        </g>
        <g
           style="fill:#000000;fill-opacity:1"
           id="id-560cfc56-2bfd-4de6-b175-1da4a1ff0a14"
           transform="matrix(0.705556,0,0,0.705556,2.3916294,-9.5364556)">
          <g
             transform="translate(180.302,145.126)"
             id="g1256">
            <path
               style="stroke:none;stroke-width:0"
               d="m 4.84375,-3.796875 c 0.046875,-0.140625 0.046875,-0.15625 0.046875,-0.234375 0,-0.171875 -0.140625,-0.265625 -0.296875,-0.265625 -0.09375,0 -0.25,0.0625 -0.34375,0.203125 -0.015625,0.0625 -0.109375,0.359375 -0.140625,0.546875 -0.078125,0.25 -0.140625,0.53125 -0.203125,0.796875 l -0.453125,1.796875 c -0.03125,0.140625 -0.46875,0.84375 -1.125,0.84375 -0.5,0 -0.609375,-0.4375 -0.609375,-0.8125 C 1.71875,-1.375 1.890625,-2 2.21875,-2.875 2.375,-3.28125 2.421875,-3.390625 2.421875,-3.59375 c 0,-0.4375 -0.3125,-0.8125 -0.8125,-0.8125 -0.953125,0 -1.3125,1.453125 -1.3125,1.53125 0,0.109375 0.09375,0.109375 0.109375,0.109375 0.109375,0 0.109375,-0.03125 0.15625,-0.1875 0.28125,-0.9375 0.671875,-1.234375 1.015625,-1.234375 0.078125,0 0.25,0 0.25,0.3125 0,0.25 -0.109375,0.515625 -0.171875,0.703125 -0.40625,1.0625 -0.578125,1.625 -0.578125,2.09375 0,0.890625 0.625,1.1875 1.21875,1.1875 0.390625,0 0.71875,-0.171875 1,-0.453125 -0.125,0.515625 -0.25,1.015625 -0.640625,1.546875 -0.265625,0.328125 -0.640625,0.625 -1.09375,0.625 -0.140625,0 -0.59375,-0.03125 -0.765625,-0.421875 0.15625,0 0.296875,0 0.421875,-0.125 C 1.328125,1.203125 1.421875,1.0625 1.421875,0.875 1.421875,0.5625 1.15625,0.53125 1.0625,0.53125 0.828125,0.53125 0.5,0.6875 0.5,1.171875 c 0,0.5 0.4375,0.875 1.0625,0.875 1.015625,0 2.046875,-0.90625 2.328125,-2.03125 z m 0,0"
               id="id-2af67924-d7ba-4f71-a93d-a200a3c3281c" />
          </g>
        </g>
        <g
           style="fill:#000000;fill-opacity:1"
           id="id-859e318b-20e9-4b0b-a240-cf4f0ad511a7"
           transform="matrix(0.705556,0,0,0.705556,2.3916294,-9.5364556)">
          <g
             transform="translate(185.186,146.62)"
             id="g1260">
            <path
               style="stroke:none;stroke-width:0"
               d="M 3.515625,-1.265625 H 3.28125 c -0.015625,0.15625 -0.09375,0.5625 -0.1875,0.625 C 3.046875,-0.59375 2.515625,-0.59375 2.40625,-0.59375 H 1.125 c 0.734375,-0.640625 0.984375,-0.84375 1.390625,-1.171875 0.515625,-0.40625 1,-0.84375 1,-1.5 0,-0.84375 -0.734375,-1.359375 -1.625,-1.359375 -0.859375,0 -1.453125,0.609375 -1.453125,1.25 0,0.34375 0.296875,0.390625 0.375,0.390625 0.15625,0 0.359375,-0.125 0.359375,-0.375 0,-0.125 -0.046875,-0.375 -0.40625,-0.375 C 0.984375,-4.21875 1.453125,-4.375 1.78125,-4.375 c 0.703125,0 1.0625,0.546875 1.0625,1.109375 0,0.609375 -0.4375,1.078125 -0.65625,1.328125 L 0.515625,-0.265625 C 0.4375,-0.203125 0.4375,-0.1875 0.4375,0 h 2.875 z m 0,0"
               id="id-1e5bf9fa-8b04-4225-8d92-bf2a37ac25ce" />
          </g>
        </g>
        <g
           style="fill:#000000;fill-opacity:1"
           id="id-2553463a-1533-4f6c-ac85-c9755fdb58ac"
           transform="matrix(0.705556,0,0,0.705556,2.3916294,-9.5364556)">
          <g
             transform="translate(183.595,155.742)"
             id="g1264">
            <path
               style="stroke:none;stroke-width:0"
               d="m 1.90625,-0.53125 c 0,-0.28125 -0.234375,-0.53125 -0.515625,-0.53125 -0.296875,0 -0.53125,0.25 -0.53125,0.53125 C 0.859375,-0.234375 1.09375,0 1.390625,0 1.671875,0 1.90625,-0.234375 1.90625,-0.53125 Z m 0,0"
               id="id-0dbbf983-1768-4f67-a219-9d064a14838d" />
          </g>
        </g>
        <g
           style="fill:#000000;fill-opacity:1"
           id="id-96dd63e8-371e-4025-b8a8-2d375ff943b5"
           transform="matrix(0.705556,0,0,0.705556,2.3916294,-9.5364556)">
          <g
             transform="translate(183.595,159.727)"
             id="g1268">
            <path
               style="stroke:none;stroke-width:0"
               d="m 1.90625,-0.53125 c 0,-0.28125 -0.234375,-0.53125 -0.515625,-0.53125 -0.296875,0 -0.53125,0.25 -0.53125,0.53125 C 0.859375,-0.234375 1.09375,0 1.390625,0 1.671875,0 1.90625,-0.234375 1.90625,-0.53125 Z m 0,0"
               id="id-b5ff2d33-251b-4c0a-bd61-ae01d9e6cfb3" />
          </g>
        </g>
        <g
           style="fill:#000000;fill-opacity:1"
           id="id-25d4bb0e-d419-4873-a590-01ae1c1868ac"
           transform="matrix(0.705556,0,0,0.705556,2.3916294,-9.5364556)">
          <g
             transform="translate(183.595,163.712)"
             id="g1272">
            <path
               style="stroke:none;stroke-width:0"
               d="m 1.90625,-0.53125 c 0,-0.28125 -0.234375,-0.53125 -0.515625,-0.53125 -0.296875,0 -0.53125,0.25 -0.53125,0.53125 C 0.859375,-0.234375 1.09375,0 1.390625,0 1.671875,0 1.90625,-0.234375 1.90625,-0.53125 Z m 0,0"
               id="id-2e0a94b9-b8fe-439d-8821-fc82c0703cc3" />
          </g>
        </g>
        <g
           style="fill:#000000;fill-opacity:1"
           id="id-fb5caae2-893f-4cc6-9998-9f7ae3734f73"
           transform="matrix(0.705556,0,0,0.705556,2.3916294,-9.5364556)">
          <g
             transform="translate(179.825,175.667)"
             id="g1276">
            <path
               style="stroke:none;stroke-width:0"
               d="m 4.84375,-3.796875 c 0.046875,-0.140625 0.046875,-0.15625 0.046875,-0.234375 0,-0.171875 -0.140625,-0.265625 -0.296875,-0.265625 -0.09375,0 -0.25,0.0625 -0.34375,0.203125 -0.015625,0.0625 -0.109375,0.359375 -0.140625,0.546875 -0.078125,0.25 -0.140625,0.53125 -0.203125,0.796875 l -0.453125,1.796875 c -0.03125,0.140625 -0.46875,0.84375 -1.125,0.84375 -0.5,0 -0.609375,-0.4375 -0.609375,-0.8125 C 1.71875,-1.375 1.890625,-2 2.21875,-2.875 2.375,-3.28125 2.421875,-3.390625 2.421875,-3.59375 c 0,-0.4375 -0.3125,-0.8125 -0.8125,-0.8125 -0.953125,0 -1.3125,1.453125 -1.3125,1.53125 0,0.109375 0.09375,0.109375 0.109375,0.109375 0.109375,0 0.109375,-0.03125 0.15625,-0.1875 0.28125,-0.9375 0.671875,-1.234375 1.015625,-1.234375 0.078125,0 0.25,0 0.25,0.3125 0,0.25 -0.109375,0.515625 -0.171875,0.703125 -0.40625,1.0625 -0.578125,1.625 -0.578125,2.09375 0,0.890625 0.625,1.1875 1.21875,1.1875 0.390625,0 0.71875,-0.171875 1,-0.453125 -0.125,0.515625 -0.25,1.015625 -0.640625,1.546875 -0.265625,0.328125 -0.640625,0.625 -1.09375,0.625 -0.140625,0 -0.59375,-0.03125 -0.765625,-0.421875 0.15625,0 0.296875,0 0.421875,-0.125 C 1.328125,1.203125 1.421875,1.0625 1.421875,0.875 1.421875,0.5625 1.15625,0.53125 1.0625,0.53125 0.828125,0.53125 0.5,0.6875 0.5,1.171875 c 0,0.5 0.4375,0.875 1.0625,0.875 1.015625,0 2.046875,-0.90625 2.328125,-2.03125 z m 0,0"
               id="id-4e61176d-d5ca-4650-8511-d682a666cd92" />
          </g>
        </g>
        <g
           style="fill:#000000;fill-opacity:1"
           id="id-a1a80d38-e141-4246-bb46-ad6c18729e4b"
           transform="matrix(0.705556,0,0,0.705556,2.3916294,-9.5364556)">
          <g
             transform="translate(184.709,177.161)"
             id="g1280">
            <path
               style="stroke:none;stroke-width:0"
               d="m 0.84375,-0.4375 c -0.015625,0.09375 -0.0625,0.265625 -0.0625,0.28125 0,0.15625 0.125,0.21875 0.234375,0.21875 0.125,0 0.234375,-0.078125 0.28125,-0.140625 0.03125,-0.0625 0.078125,-0.296875 0.125,-0.4375 0.03125,-0.125 0.109375,-0.453125 0.140625,-0.625 0.046875,-0.15625 0.09375,-0.3125 0.125,-0.46875 0.078125,-0.28125 0.09375,-0.34375 0.296875,-0.625 C 2.171875,-2.515625 2.5,-2.875 3.03125,-2.875 c 0.390625,0 0.40625,0.359375 0.40625,0.484375 0,0.421875 -0.296875,1.1875 -0.40625,1.484375 -0.078125,0.203125 -0.109375,0.265625 -0.109375,0.375 0,0.375 0.296875,0.59375 0.65625,0.59375 0.703125,0 1,-0.953125 1,-1.0625 0,-0.09375 -0.078125,-0.09375 -0.109375,-0.09375 -0.09375,0 -0.09375,0.046875 -0.125,0.125 C 4.1875,-0.40625 3.875,-0.125 3.609375,-0.125 c -0.15625,0 -0.1875,-0.09375 -0.1875,-0.25 0,-0.15625 0.046875,-0.25 0.171875,-0.5625 0.078125,-0.21875 0.359375,-0.953125 0.359375,-1.34375 0,-0.671875 -0.53125,-0.796875 -0.90625,-0.796875 -0.578125,0 -0.96875,0.359375 -1.171875,0.640625 -0.046875,-0.484375 -0.453125,-0.640625 -0.75,-0.640625 -0.296875,0 -0.453125,0.21875 -0.546875,0.375 -0.15625,0.265625 -0.25,0.65625 -0.25,0.703125 0,0.078125 0.09375,0.078125 0.125,0.078125 0.09375,0 0.09375,-0.015625 0.140625,-0.203125 0.109375,-0.40625 0.25,-0.75 0.515625,-0.75 0.1875,0 0.234375,0.15625 0.234375,0.34375 0,0.125 -0.0625,0.390625 -0.125,0.578125 -0.046875,0.1875 -0.109375,0.46875 -0.140625,0.625 z m 0,0"
               id="id-8bce40a7-c0e1-41f1-a15f-7f62ba58c175" />
          </g>
        </g>
        <g
           style="fill:#000000;fill-opacity:1"
           id="id-2fba4070-ece8-4d09-bb88-fba5f9874252"
           transform="matrix(0.705556,0,0,0.705556,2.3916294,-9.5364556)">
          <g
             transform="translate(195.114,125.527)"
             id="g1284">
            <path
               style="stroke:none;stroke-width:0"
               d="m 2.703125,17.546875 h 0.6875 v -17.9375 H 0.0625 v 0.6875 h 2.640625 z m 0,0"
               id="id-5cf3d347-9dfe-40bf-91e0-ae6359e6914a" />
          </g>
        </g>
        <g
           style="fill:#000000;fill-opacity:1"
           id="id-f380fd8b-9238-4c86-a31d-5b692939271f"
           transform="matrix(0.705556,0,0,0.705556,2.3916294,-9.5364556)">
          <g
             transform="translate(195.114,143.061)"
             id="g1288">
            <path
               style="stroke:none;stroke-width:0"
               d="m 2.703125,5.984375 h 0.6875 v -6 h -0.6875 z m 0,0"
               id="id-3576b9c3-971c-47a5-9c36-fab8d814da43" />
          </g>
        </g>
        <g
           style="fill:#000000;fill-opacity:1"
           id="id-856a26cc-3d73-41c2-b5b8-658bf916cfea"
           transform="matrix(0.705556,0,0,0.705556,2.3916294,-9.5364556)">
          <g
             transform="translate(195.114,149.039)"
             id="g1292">
            <path
               style="stroke:none;stroke-width:0"
               d="m 2.703125,5.984375 h 0.6875 v -6 h -0.6875 z m 0,0"
               id="id-8990048d-f1e5-4cff-b0ad-eb09c170e296" />
          </g>
        </g>
        <g
           style="fill:#000000;fill-opacity:1"
           id="id-fb35195d-80b6-4455-a8c6-af9782c5b7fe"
           transform="matrix(0.705556,0,0,0.705556,2.3916294,-9.5364556)">
          <g
             transform="translate(195.114,155.017)"
             id="g1296">
            <path
               style="stroke:none;stroke-width:0"
               d="m 2.703125,5.984375 h 0.6875 v -6 h -0.6875 z m 0,0"
               id="id-95dcf179-8abf-4084-a685-8d7879c77a0f" />
          </g>
        </g>
        <g
           style="fill:#000000;fill-opacity:1"
           id="id-11eb27c5-9e2a-44d5-b599-edd6d0453c3a"
           transform="matrix(0.705556,0,0,0.705556,2.3916294,-9.5364556)">
          <g
             transform="translate(195.114,161.393)"
             id="g1300">
            <path
               style="stroke:none;stroke-width:0"
               d="M 2.703125,16.84375 H 0.0625 v 0.6875 h 3.328125 v -17.9375 h -0.6875 z m 0,0"
               id="id-a3f37fca-6f15-4e88-9b0b-14f43a66922b" />
          </g>
        </g>
      </g>
    </g>
  </g>
</svg>
